<svg width="81" height="81" viewBox="0 0 81 81" fill="none" xmlns="http://www.w3.org/2000/svg">
<path d="M23.625 57.375C21.7687 57.375 20.1802 56.7146 18.8595 55.3939C17.5387 54.0731 16.8772 52.4835 16.875 50.625V16.875C16.875 15.0187 17.5365 13.4303 18.8595 12.1095C20.1825 10.7888 21.771 10.1272 23.625 10.125H70.875C72.7313 10.125 74.3209 10.7865 75.6439 12.1095C76.9669 13.4325 77.6272 15.021 77.625 16.875V50.625C77.625 52.4813 76.9646 54.0709 75.6439 55.3939C74.3231 56.7169 72.7335 57.3772 70.875 57.375H23.625ZM47.25 41.5125L23.625 25.0594V50.625H70.875V25.0594L47.25 41.5125ZM47.25 33.2438L70.875 16.875H23.625L47.25 33.2438ZM10.125 70.875C8.26875 70.875 6.68025 70.2146 5.3595 68.8939C4.03875 67.5731 3.37725 65.9835 3.375 64.125V21.9375H10.125V64.125H65.8125V70.875H10.125Z" fill="black"/>
</svg>
