<svg width="107" height="107" viewBox="0 0 107 107" fill="none" xmlns="http://www.w3.org/2000/svg">
<g clip-path="url(#clip0_141_185)">
<path d="M53.5 107C53.5 107 41.6111 107 41.6111 95.1111V11.8889C41.6111 11.8889 41.6111 0 53.5 0H95.1111C95.1111 0 107 0 107 11.8889V95.1111C107 95.1111 107 107 95.1111 107H53.5Z" fill="#31373D"/>
<path d="M47.5556 14.8611H101.056V92.1389H47.5556V14.8611ZM38.6389 47.5555C38.6389 47.5555 41.6111 50.5278 41.6111 53.5C41.6111 56.4722 38.6389 59.4444 38.6389 59.4444L23.7778 74.3055C20.8056 77.2778 14.8611 77.2778 14.8611 71.3333V62.4166H5.94444C5.94444 62.4166 0 62.4166 0 56.4722V50.5278C0 44.5833 5.94444 44.5833 5.94444 44.5833H14.8611V35.6666C14.8611 29.7222 20.8056 29.7222 23.7778 32.6944L38.6389 47.5555Z" fill="#3734C5"/>
<g clip-path="url(#clip1_141_185)">
<path d="M65.25 78C69.804 78 73.5 74.2666 73.5 69.6666V61.3333H65.25C60.696 61.3333 57 65.0666 57 69.6666C57 74.2666 60.696 78 65.25 78Z" fill="#0ACF83"/>
<path d="M57 53C57 48.4 60.696 44.6667 65.25 44.6667H73.5V61.3334H65.25C60.696 61.3334 57 57.6 57 53Z" fill="#A259FF"/>
<path d="M57 36.3333C57 31.7333 60.696 28 65.25 28H73.5V44.6667H65.25C60.696 44.6667 57 40.9333 57 36.3333Z" fill="#F24E1E"/>
<path d="M73.5 28H81.75C86.304 28 90 31.7333 90 36.3333C90 40.9333 86.304 44.6667 81.75 44.6667H73.5V28Z" fill="#FF7262"/>
<path d="M90 53C90 57.6 86.304 61.3334 81.75 61.3334C77.196 61.3334 73.5 57.6 73.5 53C73.5 48.4 77.196 44.6667 81.75 44.6667C86.304 44.6667 90 48.4 90 53Z" fill="#1ABCFE"/>
</g>
</g>
<defs>
<clipPath id="clip0_141_185">
<rect width="107" height="107" fill="white"/>
</clipPath>
<clipPath id="clip1_141_185">
<rect width="33" height="50" fill="white" transform="translate(57 28)"/>
</clipPath>
</defs>
</svg>
