<svg width="122" height="123" viewBox="0 0 122 123" fill="none" xmlns="http://www.w3.org/2000/svg">
<path d="M95.7414 94.7759C95.7414 101.369 80.3961 106.682 61.4766 106.682C42.557 106.682 27.2117 101.322 27.2117 94.7759C27.2117 88.1824 42.557 82.8697 61.4766 82.8697C80.3961 82.8697 95.7414 88.1824 95.7414 94.7759Z" fill="#9EDCF2"/>
<mask id="mask0_141_186" style="mask-type:luminance" maskUnits="userSpaceOnUse" x="42" y="90" width="39" height="33">
<path d="M46.7508 116.122C47.5133 119.68 49.3719 121.767 51.2305 123H70.8172C73.2 121.387 75.6305 118.351 75.6305 112.659V97.9541C75.6305 97.9541 75.9164 94.3016 79.3 93.1157C79.3 93.1157 81.2539 91.7401 79.157 90.9811C79.157 90.9811 69.8641 90.2221 69.8641 97.8118V109.007C69.8641 109.007 70.2453 113.133 68.0531 114.841V100.99C68.0531 100.99 68.1961 96.5785 70.4836 94.9182C70.4836 94.9182 72.0086 92.2144 68.6727 92.926C68.6727 92.926 62.2867 93.8272 62.0008 101.275L61.8578 115.505H60.3328L60.1898 101.275C59.9039 93.8747 53.518 92.926 53.518 92.926C50.182 92.167 51.707 94.9182 51.707 94.9182C53.9945 96.5785 54.1375 100.99 54.1375 100.99V114.983C51.9453 113.418 52.3266 109.007 52.3266 109.007V97.8118C52.3266 90.2221 43.0336 90.9811 43.0336 90.9811C40.8891 91.7401 42.8906 93.1157 42.8906 93.1157C46.2266 94.349 46.5601 97.9541 46.5601 97.9541V108.248L46.7508 116.122Z" fill="white"/>
</mask>
<g mask="url(#mask0_141_186)">
<path d="M95.7414 94.7759C95.7414 101.369 80.3961 106.682 61.4766 106.682C42.557 106.682 27.2117 101.322 27.2117 94.7759C27.2117 88.1824 42.557 82.8697 61.4766 82.8697C80.3961 82.8697 95.7414 88.1824 95.7414 94.7759Z" fill="#7DBCE7"/>
</g>
<path d="M22.3508 59.7212L21.35 63.1365C21.35 63.1365 21.1117 64.3698 22.2555 64.607C23.4945 64.5596 23.3992 63.4211 23.3039 63.0891L22.3508 59.7212Z" fill="#9EDCF2"/>
<path d="M121.905 45.3482L122 44.9213C111.945 42.929 101.651 42.8816 95.4078 43.1662C96.4086 39.5137 96.7422 35.2445 96.7422 30.5484C96.7422 23.7651 94.1688 18.3575 90.0703 14.278C90.7852 11.9537 91.7383 6.78326 89.1172 0.189735C89.1172 0.189735 84.4469 -1.28076 73.8195 5.78711C69.6734 4.74353 65.2414 4.22174 60.8094 4.22174C55.9484 4.22174 51.0398 4.8384 46.4172 6.07172C35.4563 -1.37563 30.643 0.142299 30.643 0.142299C27.4977 7.96914 29.4516 13.8037 30.0234 15.2268C26.3062 19.2113 24.0664 24.2869 24.0664 30.501C24.0664 35.1971 24.5906 39.4188 25.925 43.0713C19.6344 42.8342 9.72187 42.929 0 44.8739L0.0953125 45.3008C9.81719 43.3559 19.825 43.3085 26.068 43.5457C26.3539 44.3047 26.6875 45.0636 27.0211 45.7752C20.8258 45.9649 10.2938 46.7713 0.190625 49.6174L0.333594 50.0443C10.532 47.1982 21.1594 46.4393 27.307 46.2495C31.0242 53.0802 38.268 57.5391 51.2305 58.9148C49.3719 60.1481 47.5133 62.2352 46.7508 65.7929C44.225 66.9788 36.3141 69.9198 31.5484 61.7609C31.5484 61.7609 28.8797 56.9225 23.7805 56.543C23.7805 56.543 18.8242 56.4481 23.4469 59.6263C23.4469 59.6263 26.7352 61.1917 29.0227 67.0262C29.0227 67.0262 32.025 76.9877 46.3695 73.762V83.9607C46.3695 83.9607 46.0836 87.6132 42.7 88.7991C42.7 88.7991 40.6984 90.1747 42.843 90.9337C42.843 90.9337 52.1359 91.6926 52.1359 84.103V72.9082C52.1359 72.9082 51.7547 68.4493 53.9469 66.9314V85.3363C53.9469 85.3363 53.8039 89.7478 51.5164 91.408C51.5164 91.408 49.9914 94.1118 53.3273 93.4003C53.3273 93.4003 59.7133 92.499 59.9992 85.0517L60.1422 66.4096H61.6672L61.8102 85.0517C62.0961 92.4516 68.482 93.4003 68.482 93.4003C71.818 94.1593 70.293 91.408 70.293 91.408C68.0055 89.7478 67.8625 85.3363 67.8625 85.3363V67.0737C70.0547 68.7813 69.6734 72.9082 69.6734 72.9082V84.103C69.6734 91.6926 78.9664 90.9337 78.9664 90.9337C81.1109 90.1747 79.1094 88.7991 79.1094 88.7991C75.7734 87.5657 75.4398 83.9607 75.4398 83.9607V69.2557C75.4398 63.516 73.0094 60.4801 70.6266 58.9148C84.4469 57.5391 91.0711 53.1276 94.1211 46.2021C100.173 46.3444 111.087 47.1033 121.476 50.0443L121.619 49.6174C111.277 46.7239 100.459 45.9649 94.3117 45.7752C94.5977 45.0636 94.8359 44.3521 95.0742 43.5931C101.46 43.356 111.802 43.3559 121.905 45.3482Z" fill="#010101"/>
<path d="M83.2078 30.2164C86.1625 32.9202 87.9258 36.1458 87.9258 39.6086C87.9258 55.9263 75.7258 56.3533 60.6664 56.3533C45.607 56.3533 33.407 54.0764 33.407 39.6086C33.407 36.1458 35.1227 32.9202 38.0773 30.2638C42.9859 25.8049 51.2781 28.1766 60.6664 28.1766C70.0547 28.1766 78.2992 25.7574 83.2078 30.2164Z" fill="#F5CCB3"/>
<path d="M51.6117 40.4624C51.6117 44.9688 49.0859 48.5739 45.9406 48.5739C42.7953 48.5739 40.2695 44.9213 40.2695 40.4624C40.2695 35.956 42.7953 32.351 45.9406 32.351C49.0859 32.3035 51.6117 35.956 51.6117 40.4624Z" fill="white"/>
<path d="M49.8008 40.5573C49.8008 43.5457 48.0852 45.9649 46.0359 45.9649C43.9391 45.9649 42.2711 43.5457 42.2711 40.5573C42.2711 37.5688 43.9867 35.1496 46.0359 35.1496C48.0852 35.1496 49.8008 37.5688 49.8008 40.5573Z" fill="#AF5C51"/>
<path d="M82.0641 40.4624C82.0641 44.9688 79.5383 48.5739 76.393 48.5739C73.2477 48.5739 70.7219 44.9213 70.7219 40.4624C70.7219 35.956 73.2477 32.351 76.393 32.351C79.4906 32.3035 82.0641 35.956 82.0641 40.4624Z" fill="white"/>
<path d="M80.2055 40.5573C80.2055 43.5457 78.4898 45.9649 76.4406 45.9649C74.3437 45.9649 72.6758 43.5457 72.6758 40.5573C72.6758 37.5688 74.3914 35.1496 76.4406 35.1496C78.5375 35.1496 80.2055 37.5688 80.2055 40.5573ZM62.1914 47.6726C62.1914 48.4315 61.5719 49.0956 60.7617 49.0956C59.9992 49.0956 59.332 48.479 59.332 47.6726C59.332 46.8662 59.9516 46.2495 60.7617 46.2495C61.5242 46.2495 62.1914 46.8662 62.1914 47.6726ZM57.4734 51.2302C57.3781 50.9931 57.5211 50.7559 57.7594 50.661C57.9976 50.5661 58.2359 50.7084 58.3312 50.9456C58.7125 51.9892 59.6656 52.6533 60.7617 52.6533C61.8578 52.6533 62.8109 51.9418 63.1922 50.9456C63.2875 50.7084 63.5258 50.5661 63.7641 50.661C64.0023 50.7559 64.1453 50.9931 64.05 51.2302C63.5734 52.6059 62.2391 53.5546 60.7617 53.5546C59.2844 53.5546 57.95 52.6059 57.4734 51.2302Z" fill="#AF5C51"/>
<path d="M25.9727 57.6815C25.9727 58.0609 25.5438 58.3456 24.9719 58.3456C24.4477 58.3456 23.9711 58.0609 23.9711 57.6815C23.9711 57.302 24.4 57.0174 24.9719 57.0174C25.5438 57.0174 25.9727 57.302 25.9727 57.6815ZM28.7367 59.1994C28.7367 59.5789 28.3078 59.8635 27.7359 59.8635C27.2117 59.8635 26.7352 59.5789 26.7352 59.1994C26.7352 58.8199 27.1641 58.5353 27.7359 58.5353C28.3078 58.5353 28.7367 58.8199 28.7367 59.1994ZM30.4047 61.1917C30.4047 61.5712 29.9758 61.8558 29.4039 61.8558C28.8797 61.8558 28.4031 61.5712 28.4031 61.1917C28.4031 60.8122 28.832 60.5276 29.4039 60.5276C29.9758 60.4801 30.4047 60.8122 30.4047 61.1917ZM31.9297 63.4686C31.9297 63.8481 31.5008 64.1327 30.9289 64.1327C30.4047 64.1327 29.9281 63.8481 29.9281 63.4686C29.9281 63.0891 30.357 62.8045 30.9289 62.8045C31.5008 62.757 31.9297 63.0891 31.9297 63.4686ZM33.5977 65.5557C33.5977 65.9352 33.1688 66.2198 32.5969 66.2198C32.0727 66.2198 31.5961 65.9352 31.5961 65.5557C31.5961 65.1763 32.025 64.8916 32.5969 64.8916C33.1688 64.8916 33.5977 65.1763 33.5977 65.5557ZM35.8852 67.4057C35.8852 67.7852 35.4563 68.0698 34.8844 68.0698C34.3602 68.0698 33.8836 67.7852 33.8836 67.4057C33.8836 67.0262 34.3125 66.7416 34.8844 66.7416C35.4563 66.6942 35.8852 67.0262 35.8852 67.4057ZM39.0781 68.5916C39.0781 68.9711 38.6492 69.2557 38.0774 69.2557C37.5531 69.2557 37.0766 68.9711 37.0766 68.5916C37.0766 68.2121 37.5055 67.9275 38.0774 67.9275C38.6492 67.9275 39.0781 68.2121 39.0781 68.5916ZM42.2711 68.5916C42.2711 68.9711 41.8422 69.2557 41.2703 69.2557C40.7461 69.2557 40.2695 68.9711 40.2695 68.5916C40.2695 68.2121 40.6984 67.9275 41.2703 67.9275C41.8422 67.9275 42.2711 68.2121 42.2711 68.5916ZM45.5117 68.0698C45.5117 68.4493 45.0828 68.7339 44.5109 68.7339C43.9867 68.7339 43.5102 68.4493 43.5102 68.0698C43.5102 67.6903 43.9391 67.4057 44.5109 67.4057C45.0352 67.4057 45.5117 67.6903 45.5117 68.0698Z" fill="#C4E5D9"/>
</svg>
