<svg width="160" height="57" viewBox="0 0 160 57" fill="none" xmlns="http://www.w3.org/2000/svg">
<g clip-path="url(#clip0_196_35)">
<path d="M31.3244 26.1844V46.6331C31.3244 46.7756 31.2889 47.025 31.1111 47.0963C31.1111 47.0963 26.6667 50.2669 19.3422 50.2669C10.4889 50.2669 0 47.4881 0 29.1769C0 10.8656 9.17333 7.08938 18.1333 7.125C25.8844 7.125 29.0133 8.87063 29.5111 9.19125C29.6533 9.36938 29.7244 9.51188 29.7244 9.69L28.2311 16.0313C28.2311 16.3519 27.9111 16.7438 27.52 16.6369C26.24 16.245 24.32 15.4613 19.8044 15.4613C14.5778 15.4613 8.96 16.9575 8.96 28.7494C8.96 40.5413 14.2933 41.9306 18.1333 41.9306C21.4044 41.9306 22.5778 41.5388 22.5778 41.5388V33.345H17.3511C16.96 33.345 16.6756 33.06 16.6756 32.7394V26.1844C16.6756 25.8638 16.96 25.5788 17.3511 25.5788H30.6489C31.04 25.5788 31.3244 25.8638 31.3244 26.1844ZM158.791 34.485C158.791 46.7044 154.844 50.1956 147.947 50.1956C142.116 50.1956 138.987 47.2388 138.987 47.2388C138.987 47.2388 138.844 48.8775 138.667 49.0913C138.56 49.305 138.382 49.3763 138.169 49.3763H132.907C132.551 49.3763 132.231 49.0913 132.231 48.7706L132.302 9.19125C132.302 8.87063 132.587 8.58563 132.907 8.58563H140.48C140.8 8.58563 141.084 8.87063 141.084 9.19125V22.6219C141.084 22.6219 144 20.7338 148.267 20.7338L148.231 20.6625C152.498 20.6625 158.791 22.2656 158.791 34.485ZM98.4178 8.65688C98.7378 8.65688 99.0222 8.94188 99.0222 9.2625V48.8419C99.0222 49.1625 98.7378 49.4475 98.4178 49.4475H90.8444C90.5244 49.4475 90.24 49.1625 90.24 48.8419L90.3111 31.92H78.5422V48.8419C78.5422 49.1625 78.2578 49.4475 77.9378 49.4475H70.3644C70.08 49.4475 69.76 49.1625 69.76 48.8419V9.2625C69.76 8.94188 70.0444 8.65688 70.3644 8.65688H77.9378C78.2578 8.65688 78.5422 8.94188 78.5422 9.2625V23.8331H90.3111V9.2625C90.3111 8.94188 90.5956 8.65688 90.9156 8.65688H98.4178ZM127.787 21.6244C128.178 21.6244 128.462 21.9094 128.462 22.23L128.391 48.8419C128.391 49.1625 128.178 49.4475 127.787 49.4475H123.022C122.773 49.4475 122.524 49.305 122.453 49.1269C122.347 48.9131 122.169 47.5238 122.169 47.5238C122.169 47.5238 118.151 50.2669 113.209 50.2669C107.2 50.2669 102.827 48.3075 102.827 40.47V22.2656C102.827 21.945 103.111 21.66 103.431 21.66H111.04C111.36 21.66 111.644 21.945 111.644 22.2656V39.1875C111.644 41.8594 112.427 43.0706 115.093 43.0706C117.76 43.0706 119.716 41.6813 119.716 41.6813V22.3013C119.716 21.9094 119.929 21.6244 120.32 21.6244H127.787ZM65.8987 42.8961H65.9164C66.0616 42.9262 66.1914 43.0067 66.2831 43.1233C66.3749 43.24 66.4225 43.3853 66.4178 43.5338V48.8775C66.4178 49.1269 66.3111 49.3763 66.0978 49.4475C65.7422 49.6256 63.4667 50.2313 61.5822 50.2313C57.4578 50.2313 51.4133 49.3406 51.4133 40.6481V28.9631H47.4667C47.1467 28.9631 46.8622 28.6781 46.8622 28.2863V23.4413C46.8622 23.1563 47.04 22.9069 47.3244 22.8356C47.5733 22.8 51.4489 21.8381 51.4489 21.8381V14.1075C51.4489 13.8225 51.6267 13.6444 51.9467 13.6444H59.6267C59.9467 13.6444 60.1244 13.8225 60.1244 14.1075V21.6244H65.7778C66.0622 21.6244 66.3467 21.9094 66.3467 22.23V28.2863C66.3467 28.6781 66.0978 28.9631 65.7778 28.9631H60.1244V40.1173C60.1244 41.7917 61.0844 43.0742 63.8578 43.0742C64.736 43.0742 65.568 42.8996 65.8987 42.8961ZM43.52 21.5888C43.84 21.5888 44.1244 21.8738 44.1244 22.1944V48.45C44.1244 49.0913 43.9467 49.4119 43.2356 49.4119H36.4089C35.8044 49.4119 35.3422 49.1625 35.3422 48.45V22.3013C35.3422 21.9094 35.6267 21.5888 35.9467 21.5888H43.52ZM150.151 35.055C150.151 28.6069 147.556 27.7519 144.818 28.0369C142.684 28.1794 140.978 29.2481 140.978 29.2481V41.7881C140.978 41.7881 142.72 42.9994 145.316 43.0706C148.978 43.1775 150.151 41.8594 150.151 35.055ZM39.7867 9.5475C42.4533 9.5475 44.6222 11.7206 44.6222 14.4638C44.6222 17.2069 42.4533 19.38 39.7867 19.38C37.0489 19.38 34.88 17.2069 34.88 14.4638C34.88 11.7206 37.0489 9.5475 39.7867 9.5475ZM65.8844 42.8569L65.92 42.8925H65.9164L65.8987 42.8889V42.8925C65.8667 42.8889 65.8453 42.8533 65.8133 42.8533L65.8844 42.8569Z" fill="black"/>
</g>
<defs>
<clipPath id="clip0_196_35">
<rect width="160" height="57" fill="white"/>
</clipPath>
</defs>
</svg>
