<svg width="512" height="128" viewBox="0 0 512 128" fill="none" xmlns="http://www.w3.org/2000/svg">
<g clip-path="url(#clip0_198_37)">
<path d="M202.057 74.971L230.309 109.714H208L182.857 77.806V109.714H164.571V18.286H182.857V72.046L206.08 45.714H229.394L202.057 74.971ZM128.914 43.886C124.91 43.946 120.981 44.9753 117.462 46.886C113.943 48.7967 110.94 51.5318 108.709 54.857V45.714H91.429V109.714H109.714V79.817C109.474 77.647 109.683 75.4507 110.328 73.365C110.974 71.2793 112.041 69.3487 113.465 67.6934C114.889 66.0382 116.638 64.6937 118.604 63.7436C120.569 62.7935 122.709 62.2582 124.891 62.171C135.497 62.171 137.143 72.594 137.143 79.817V109.714H155.429V75.794C155.429 55.68 148.754 43.886 129.28 43.886H128.914ZM292.571 79.177C292.641 80.517 292.641 81.86 292.571 83.2H244.571V83.84C245.35 87.6526 247.463 91.0629 250.529 93.4589C253.595 95.8549 257.415 97.0798 261.303 96.914C264.387 97.0482 267.467 96.5586 270.357 95.4748C273.248 94.3909 275.89 92.7349 278.126 90.606L290.286 99.749C286.432 103.682 281.796 106.763 276.678 108.795C271.56 110.826 266.073 111.762 260.571 111.543C256.014 111.831 251.449 111.138 247.183 109.51C242.918 107.883 239.051 105.358 235.844 102.108C232.638 98.8583 230.166 94.958 228.596 90.6708C227.026 86.3835 226.394 81.8093 226.743 77.257C226.649 72.7631 227.482 68.298 229.19 64.1401C230.898 59.9823 233.444 56.2207 236.669 53.0898C239.894 49.959 243.73 47.526 247.936 45.9425C252.143 44.359 256.631 43.659 261.12 43.886C278.309 43.886 292.571 56.046 292.571 79.177ZM275.566 71.314C275.499 69.503 275.063 67.7247 274.287 66.0874C273.51 64.4501 272.408 62.9881 271.048 61.7905C269.688 60.5929 268.098 59.6848 266.375 59.1215C264.653 58.5582 262.834 58.3515 261.029 58.514C252.989 57.645 245.708 63.308 244.571 71.314H275.566ZM18.286 18.286H0V109.714H54.857V91.43H18.286V18.286ZM347.429 18.286H365.714V109.714H348.434V103.314C346.24 106.017 343.443 108.17 340.268 109.599C337.093 111.027 333.628 111.693 330.149 111.543C325.899 111.434 321.717 110.457 317.858 108.672C314 106.887 310.547 104.331 307.713 101.163C304.879 97.9946 302.722 94.2799 301.376 90.2474C300.03 86.2149 299.523 81.9497 299.886 77.714C299.454 73.4723 299.91 69.1872 301.225 65.1313C302.54 61.0755 304.684 57.3377 307.522 54.1558C310.36 50.9739 313.829 48.4176 317.709 46.6495C321.588 44.8814 325.794 43.9403 330.057 43.886C333.232 43.7469 336.404 44.2411 339.386 45.3399C342.369 46.4387 345.103 48.12 347.429 50.286V18.286ZM348.8 77.714C349.088 75.6028 348.919 73.4545 348.306 71.4139C347.693 69.3733 346.649 67.488 345.245 65.885C343.842 64.282 342.11 62.9987 340.169 62.1215C338.227 61.2443 336.12 60.7937 333.989 60.8C325.242 61.435 318.614 68.957 319.086 77.714C318.614 86.471 325.242 93.994 333.989 94.629C336.12 94.6354 338.227 94.1847 340.169 93.3075C342.111 92.4302 343.842 91.1468 345.246 89.5437C346.649 87.9406 347.693 86.0551 348.306 84.0144C348.919 81.9737 349.088 79.8253 348.8 77.714ZM73.143 16.457C70.2025 16.4987 67.3874 17.6545 65.2661 19.6912C63.1448 21.7279 61.8753 24.4937 61.714 27.43C61.714 33.741 66.831 38.858 73.143 38.858C79.455 38.858 84.57 33.74 84.57 27.43C84.4085 24.494 83.139 21.7287 81.0179 19.6922C78.8969 17.6558 76.0821 16.4999 73.142 16.458M64 109.714H82.286V45.714H64V109.714ZM512 9.143V118.857C512 121.282 511.037 123.607 509.322 125.322C507.607 127.037 505.282 128 502.857 128H393.143C390.718 128 388.393 127.037 386.678 125.322C384.963 123.607 384 121.282 384 118.857V9.143C384 6.71813 384.963 4.39257 386.678 2.67792C388.393 0.963278 390.718 0 393.143 0L502.857 0C505.282 0 507.607 0.963278 509.322 2.67792C511.037 4.39257 512 6.71813 512 9.143ZM420.571 45.714H402.286V109.714H420.571V45.714ZM422.857 27.429C422.857 21.117 417.74 16 411.429 16C405.117 16 400 21.117 400 27.429C400 33.74 405.117 38.857 411.429 38.857C417.74 38.857 422.857 33.74 422.857 27.429ZM493.714 75.794C493.714 55.68 487.04 43.886 467.566 43.886C463.5 43.8863 459.497 44.8873 455.909 46.8006C452.321 48.7139 449.26 51.4807 446.994 54.857V45.714H429.714V109.714H448V79.817C447.76 77.647 447.969 75.4507 448.614 73.365C449.26 71.2793 450.327 69.3487 451.751 67.6934C453.175 66.0382 454.924 64.6937 456.89 63.7436C458.855 62.7935 460.995 62.2582 463.177 62.171C473.783 62.171 475.429 72.594 475.429 79.817V109.714H493.714V75.794Z" fill="black"/>
</g>
<defs>
<clipPath id="clip0_198_37">
<rect width="512" height="128" fill="white"/>
</clipPath>
</defs>
</svg>
