<svg width="104" height="104" viewBox="0 0 104 104" fill="none" xmlns="http://www.w3.org/2000/svg">
<path d="M49.8333 91H34.6667C32.3681 91 30.1637 90.0869 28.5384 88.4616C26.9131 86.8363 26 84.6319 26 82.3333V21.6667C26 19.3681 26.9131 17.1637 28.5384 15.5384C30.1637 13.9131 32.3681 13 34.6667 13H69.3333C71.6319 13 73.8363 13.9131 75.4616 15.5384C77.0869 17.1637 78 19.3681 78 21.6667V56.3333M86.6667 91L95.3333 82.3333L86.6667 73.6667M73.6667 73.6667L65 82.3333L73.6667 91M47.6667 17.3333H56.3333M52 73.6667V73.71" stroke="black" stroke-width="2" stroke-linecap="round" stroke-linejoin="round"/>
</svg>
