<svg width="177" height="177" viewBox="0 0 177 177" fill="none" xmlns="http://www.w3.org/2000/svg">
<path d="M152.109 105.094C152.109 105.827 151.818 106.531 151.299 107.049C150.781 107.568 150.077 107.859 149.344 107.859H129.984V124.453H143.812C144.546 124.453 145.249 124.745 145.768 125.263C146.287 125.782 146.578 126.485 146.578 127.219C146.578 127.952 146.287 128.656 145.768 129.174C145.249 129.693 144.546 129.984 143.812 129.984H129.984V143.812C129.984 144.546 129.693 145.249 129.174 145.768C128.656 146.287 127.952 146.578 127.219 146.578C126.485 146.578 125.782 146.287 125.263 145.768C124.745 145.249 124.453 144.546 124.453 143.812V105.094C124.453 104.36 124.745 103.657 125.263 103.138C125.782 102.62 126.485 102.328 127.219 102.328H149.344C150.077 102.328 150.781 102.62 151.299 103.138C151.818 103.657 152.109 104.36 152.109 105.094ZM60.8438 118.922C60.8438 123.323 59.0955 127.543 55.9836 130.655C52.8716 133.767 48.6509 135.516 44.25 135.516H35.9531V143.812C35.9531 144.546 35.6617 145.249 35.1431 145.768C34.6244 146.287 33.921 146.578 33.1875 146.578C32.454 146.578 31.7506 146.287 31.2319 145.768C30.7133 145.249 30.4219 144.546 30.4219 143.812V105.094C30.4219 104.36 30.7133 103.657 31.2319 103.138C31.7506 102.62 32.454 102.328 33.1875 102.328H44.25C48.6509 102.328 52.8716 104.076 55.9836 107.188C59.0955 110.3 60.8438 114.521 60.8438 118.922ZM55.3125 118.922C55.3125 115.988 54.147 113.174 52.0724 111.1C49.9977 109.025 47.184 107.859 44.25 107.859H35.9531V129.984H44.25C47.184 129.984 49.9977 128.819 52.0724 126.744C54.147 124.67 55.3125 121.856 55.3125 118.922ZM110.625 124.453C110.625 130.321 108.294 135.949 104.145 140.098C99.9955 144.247 94.3679 146.578 88.5 146.578H77.4375C76.704 146.578 76.0006 146.287 75.4819 145.768C74.9633 145.249 74.6719 144.546 74.6719 143.812V105.094C74.6719 104.36 74.9633 103.657 75.4819 103.138C76.0006 102.62 76.704 102.328 77.4375 102.328H88.5C94.3679 102.328 99.9955 104.659 104.145 108.808C108.294 112.958 110.625 118.585 110.625 124.453ZM105.094 124.453C105.094 120.052 103.345 115.832 100.234 112.72C97.1216 109.608 92.9009 107.859 88.5 107.859H80.2031V141.047H88.5C92.9009 141.047 97.1216 139.299 100.234 136.187C103.345 133.075 105.094 128.854 105.094 124.453ZM30.4219 77.4375V27.6563C30.4219 25.4558 31.296 23.3454 32.852 21.7895C34.4079 20.2335 36.5183 19.3594 38.7188 19.3594H105.094C105.457 19.3591 105.817 19.4304 106.153 19.5692C106.488 19.708 106.793 19.9116 107.05 20.1683L145.769 58.8871C146.026 59.1441 146.23 59.4492 146.368 59.7849C146.507 60.1207 146.578 60.4805 146.578 60.8438V77.4375C146.578 78.171 146.287 78.8744 145.768 79.3931C145.249 79.9117 144.546 80.2031 143.812 80.2031C143.079 80.2031 142.376 79.9117 141.857 79.3931C141.338 78.8744 141.047 78.171 141.047 77.4375V63.6094H105.094C104.36 63.6094 103.657 63.318 103.138 62.7993C102.62 62.2807 102.328 61.5772 102.328 60.8438V24.8906H38.7188C37.9853 24.8906 37.2818 25.182 36.7632 25.7007C36.2445 26.2193 35.9531 26.9228 35.9531 27.6563V77.4375C35.9531 78.171 35.6617 78.8744 35.1431 79.3931C34.6244 79.9117 33.921 80.2031 33.1875 80.2031C32.454 80.2031 31.7506 79.9117 31.2319 79.3931C30.7133 78.8744 30.4219 78.171 30.4219 77.4375ZM107.859 58.0781H137.134L107.859 28.7971V58.0781Z" fill="black"/>
</svg>
