<svg width="95" height="95" viewBox="0 0 95 95" fill="none" xmlns="http://www.w3.org/2000/svg">
<g clip-path="url(#clip0_141_229)">
<path d="M70.9475 32.5863C59.9115 26.4137 42.1984 16.502 14.7241 1.11844C12.8718 -0.104874 10.7406 -0.265187 8.8992 0.358066L56.0375 47.4963L70.9475 32.5863Z" fill="#32BBFF"/>
<path d="M8.89921 0.358032C8.55409 0.474927 8.21825 0.615943 7.89707 0.786275C5.86366 1.8862 4.36945 4.00274 4.36945 6.67963V88.313C4.36945 90.9899 5.86347 93.1064 7.89707 94.2062C8.2177 94.3763 8.55335 94.5179 8.8981 94.6355L56.0375 47.4963L8.89921 0.358032Z" fill="#32BBFF"/>
<path d="M56.0375 47.4963L8.8981 94.6355C10.74 95.2634 12.8712 95.1154 14.7241 93.8742C41.3683 78.9544 58.8817 69.1601 70.0454 62.935C70.3562 62.7604 70.6607 62.5897 70.9616 62.4206L56.0375 47.4963Z" fill="#32BBFF"/>
<path d="M4.36945 47.4963V88.313C4.36945 90.9899 5.86347 93.1065 7.89707 94.2062C8.2177 94.3763 8.55335 94.5179 8.8981 94.6355L56.0375 47.4963H4.36945Z" fill="#2C9FD9"/>
<path d="M14.7241 1.11846C12.5244 -0.334002 9.93048 -0.292625 7.89706 0.786518L55.322 48.2116L70.9473 32.5863C59.9115 26.4137 42.1984 16.502 14.7241 1.11846Z" fill="#29CC5E"/>
<path d="M55.3224 46.7812L7.89706 94.2062C9.93066 95.2852 12.5244 95.3475 14.7241 93.8743C41.3683 78.9544 58.8817 69.1601 70.0454 62.935C70.3562 62.7604 70.6606 62.5897 70.9616 62.4207L55.3224 46.7812Z" fill="#D93F21"/>
<path d="M90.6306 47.4964C90.6306 45.2345 89.4893 42.9519 87.2272 41.6861C87.2272 41.6861 82.997 39.3258 70.0304 32.0731L54.6071 47.4964L70.0454 62.9348C82.8697 55.7343 87.2271 53.3064 87.2271 53.3064C89.4893 52.0408 90.6306 49.7582 90.6306 47.4964Z" fill="#FFD500"/>
<path d="M87.2272 53.3066C89.4893 52.0408 90.6306 49.7582 90.6306 47.4963H54.6071L70.0454 62.9348C82.8699 55.7344 87.2272 53.3066 87.2272 53.3066Z" fill="#FFAA00"/>
</g>
<defs>
<clipPath id="clip0_141_229">
<rect width="95" height="95" fill="white"/>
</clipPath>
</defs>
</svg>
