<svg width="115" height="115" viewBox="0 0 115 115" fill="none" xmlns="http://www.w3.org/2000/svg">
<g clip-path="url(#clip0_141_187)">
<path d="M57.5 0C25.7438 0 0 25.7443 0 57.5C0 89.258 25.7443 115 57.5 115C89.2584 115 115 89.258 115 57.5C115 25.7465 89.2584 0.00314453 57.4991 0.00314453L57.5 0ZM83.8687 82.9321C82.8386 84.6211 80.6276 85.1566 78.9385 84.1198C65.4381 75.8735 48.4433 74.0056 28.4284 78.5787C27.5015 78.7896 26.5289 78.6238 25.7242 78.1178C24.9196 77.6118 24.3488 76.807 24.1374 75.8802C24.0321 75.4215 24.0183 74.9464 24.0968 74.4823C24.1753 74.0181 24.3445 73.5741 24.5949 73.1754C24.8453 72.7768 25.1718 72.4315 25.5558 72.1593C25.9398 71.887 26.3737 71.6932 26.8327 71.5889C48.7366 66.5846 67.5243 68.739 82.681 78.0019C84.37 79.0387 84.9055 81.243 83.8687 82.9321ZM90.9066 67.2754C89.6084 69.3845 86.8484 70.0507 84.7406 68.7529C69.2848 59.2529 45.7246 56.5014 27.4437 62.0506C25.0727 62.7666 22.5688 61.4307 21.8491 59.0637C21.1348 56.6928 22.4717 54.1933 24.8387 53.4728C45.7206 47.1361 71.6809 50.2056 89.4305 61.1126C91.5382 62.4109 92.2044 65.1704 90.9066 67.2754ZM91.5108 50.972C72.9787 39.9643 42.4036 38.9518 24.7102 44.3226C21.8689 45.1842 18.864 43.5801 18.0033 40.7388C17.1422 37.8961 18.7446 34.8935 21.5881 34.0297C41.8986 27.8637 75.6637 29.0555 96.9994 41.7216C99.5608 43.2382 100.398 46.5391 98.8807 49.0911C97.3704 51.6471 94.0606 52.4894 91.5135 50.972H91.5108Z" fill="black"/>
</g>
<defs>
<clipPath id="clip0_141_187">
<rect width="115" height="115" fill="none"/>
</clipPath>
</defs>
</svg>
