<svg width="84" height="84" viewBox="0 0 84 84" fill="none" xmlns="http://www.w3.org/2000/svg">
<path d="M24.5 35V42C24.5 44.3345 25.9 49 31.5 49C37.1 49 38.5 44.3345 38.5 42V35M49 35L54.25 42M54.25 42L59.5 49M54.25 42L59.5 35M54.25 42L49 49" stroke="black" stroke-width="2" stroke-linecap="round" stroke-linejoin="round"/>
<path d="M42 77C61.33 77 77 61.33 77 42C77 22.67 61.33 7 42 7C22.67 7 7 22.67 7 42C7 61.33 22.67 77 42 77Z" stroke="black" stroke-width="2" stroke-linecap="round" stroke-linejoin="round"/>
</svg>
