<svg width="157" height="137" viewBox="0 0 157 137" fill="none" xmlns="http://www.w3.org/2000/svg">
<g clip-path="url(#clip0_141_188)">
<path d="M156.924 31.7385C156.225 47.0776 145.551 68.0816 124.905 94.7401C103.559 122.587 85.4994 136.509 70.726 136.509C61.5771 136.509 53.8295 128.032 47.5054 111.071C43.2786 95.5246 39.0574 79.9791 34.8325 64.433C30.133 47.4819 25.0949 38.9952 19.7084 38.9952C18.534 38.9952 14.4238 41.476 7.38697 46.4172L0 36.8659C7.68976 30.0892 15.3274 23.2533 22.9122 16.3589C33.246 7.39555 41.004 2.68226 46.1739 2.20553C58.3936 1.02782 65.9136 9.41062 68.7366 27.3558C71.787 46.7164 73.8973 58.7589 75.084 63.4722C78.6055 79.5344 82.4802 87.5553 86.7149 87.5553C90.0009 87.5553 94.9372 82.3468 101.518 71.9287C108.094 61.5075 111.615 53.5793 112.091 48.1331C113.027 39.1402 109.503 34.6328 101.518 34.6328C97.7601 34.6328 93.8848 35.5008 89.8991 37.2167C97.6141 11.8502 112.356 -0.469351 134.117 0.233465C150.248 0.708357 157.853 11.2101 156.924 31.7385Z" fill="#32B8E8"/>
</g>
<defs>
<clipPath id="clip0_141_188">
<rect width="157" height="137" fill="white"/>
</clipPath>
</defs>
</svg>
