<svg width="98" height="98" viewBox="0 0 98 98" fill="none" xmlns="http://www.w3.org/2000/svg">
<path d="M49.1634 8.16663C26.8683 8.16663 8.69752 26.3375 8.69752 48.6325C8.69752 55.7783 10.5759 62.72 14.0875 68.845L8.37085 89.8333L29.8084 84.1983C35.7292 87.4241 42.385 89.1391 49.1634 89.1391C71.4584 89.1391 89.6292 70.9683 89.6292 48.6733C89.6292 37.8525 85.4234 27.685 77.7875 20.0491C74.0439 16.2677 69.5848 13.2694 64.6704 11.2293C59.7559 9.18923 54.4844 8.14809 49.1634 8.16663ZM49.2042 14.9858C58.1875 14.9858 66.5992 18.4975 72.9692 24.8675C76.0954 27.9927 78.574 31.7043 80.2627 35.7894C81.9514 39.8745 82.8171 44.2529 82.81 48.6733C82.81 67.2116 67.7017 82.2791 49.1634 82.2791C43.12 82.2791 37.1992 80.6866 32.0542 77.5833L30.8292 76.8891L18.0892 80.2375L21.4784 67.8241L20.6617 66.5175C17.2886 61.1629 15.5045 54.9609 15.5167 48.6325C15.5575 30.0941 30.625 14.9858 49.2042 14.9858ZM34.8308 29.9308C34.1775 29.9308 33.075 30.1758 32.1358 31.1966C31.2375 32.2175 28.5833 34.7083 28.5833 39.6491C28.5833 44.6308 32.2175 49.4083 32.6667 50.1025C33.2383 50.7966 39.8534 61.005 50.0209 65.3333C52.43 66.4358 54.3083 67.0483 55.7784 67.4975C58.1875 68.2733 60.3925 68.1508 62.1484 67.9058C64.1084 67.62 68.11 65.4558 68.9675 63.0875C69.825 60.7191 69.825 58.7183 69.58 58.2691C69.2942 57.8608 68.6408 57.6158 67.62 57.1666C66.5992 56.595 61.6175 54.145 60.7192 53.8183C59.78 53.4916 59.2084 53.3283 58.4325 54.3083C57.7792 55.3291 55.8192 57.6158 55.2475 58.2691C54.635 58.9633 54.0634 59.045 53.0834 58.555C52.0217 58.0241 48.755 56.9625 44.9167 53.5325C41.895 50.8375 39.8942 47.53 39.2817 46.5091C38.7917 45.5291 39.2408 44.9166 39.7308 44.4675C40.18 44.0183 40.8334 43.2833 41.2417 42.6708C41.7725 42.0991 41.9359 41.65 42.2625 40.9966C42.5892 40.3025 42.4258 39.7308 42.1808 39.2408C41.9358 38.7916 39.8942 33.7283 39.0367 31.7275C38.22 29.7675 37.4033 30.0125 36.75 29.9716C36.1783 29.9716 35.525 29.9308 34.8308 29.9308Z" fill="black"/>
</svg>
