<svg width="115" height="81" viewBox="0 0 115 81" fill="none" xmlns="http://www.w3.org/2000/svg">
<path d="M112.46 12.6338C111.801 10.1919 110.514 7.96565 108.728 6.17683C106.943 4.388 104.72 3.09898 102.283 2.4381C93.3585 0 57.4417 0 57.4417 0C57.4417 0 21.5231 0.0737998 12.5989 2.5119C10.1612 3.17281 7.93887 4.46191 6.15323 6.25082C4.36759 8.03972 3.08093 10.266 2.42138 12.708C-0.27798 28.5921 -1.32511 52.7958 2.4955 68.0445C3.15512 70.4864 4.44181 72.7126 6.22745 74.5014C8.01309 76.2902 10.2354 77.5793 12.673 78.2402C21.5972 80.6783 57.5149 80.6783 57.5149 80.6783C57.5149 80.6783 93.4322 80.6783 102.356 78.2402C104.794 77.5793 107.016 76.2903 108.802 74.5015C110.587 72.7127 111.874 70.4865 112.534 68.0445C115.381 52.1379 116.258 27.9491 112.46 12.6338Z" fill="#FF0000"/>
</svg>
